<?xml version="1.0" encoding="UTF-8" standalone="no"?>
<!-- Generator: Adobe Illustrator 16.0.0, SVG Export Plug-In . SVG Version: 6.00 Build 0)  -->

<svg
   xmlns:dc="http://purl.org/dc/elements/1.1/"
   xmlns:cc="http://creativecommons.org/ns#"
   xmlns:rdf="http://www.w3.org/1999/02/22-rdf-syntax-ns#"
   xmlns:svg="http://www.w3.org/2000/svg"
   xmlns="http://www.w3.org/2000/svg"
   xmlns:sodipodi="http://sodipodi.sourceforge.net/DTD/sodipodi-0.dtd"
   xmlns:inkscape="http://www.inkscape.org/namespaces/inkscape"
   version="1.1"
   id="Capa_1"
   x="0px"
   y="0px"
   width="612px"
   height="612px"
   viewBox="0 0 612 612"
   style="enable-background:new 0 0 612 612;"
   xml:space="preserve"
   inkscape:version="0.91 r13725"
   sodipodi:docname="googleplus.svg"><metadata
     id="metadata70"><rdf:RDF><cc:Work
         rdf:about=""><dc:format>image/svg+xml</dc:format><dc:type
           rdf:resource="http://purl.org/dc/dcmitype/StillImage" /></cc:Work></rdf:RDF></metadata><defs
     id="defs68" /><sodipodi:namedview
     pagecolor="#ffffff"
     bordercolor="#666666"
     borderopacity="1"
     objecttolerance="10"
     gridtolerance="10"
     guidetolerance="10"
     inkscape:pageopacity="0"
     inkscape:pageshadow="2"
     inkscape:window-width="1024"
     inkscape:window-height="737"
     id="namedview66"
     showgrid="false"
     inkscape:zoom="0.38562092"
     inkscape:cx="306"
     inkscape:cy="306"
     inkscape:window-x="0"
     inkscape:window-y="0"
     inkscape:window-maximized="1"
     inkscape:current-layer="Capa_1" /><g
     id="g26"
     style="fill:#4d4d4d"><g
       id="g28"
       style="fill:#4d4d4d"><path
         d="M349.146,402.251c0-30.016-17.387-44.815-36.525-60.922l-15.662-12.185c-4.785-3.895-11.294-9.124-11.294-18.693    c0-9.57,6.537-15.662,12.184-21.309c18.249-14.354,36.526-29.571,36.526-61.756c0-33.076-20.892-50.462-30.878-58.724l0,0h26.956    L358.271,153h-89.603c-23.479,0-53.049,3.478-77.863,23.924c-18.693,16.079-27.818,38.278-27.818,58.279    c0,33.911,26.093,68.294,72.188,68.294c4.368,0,9.125-0.445,13.937-0.863c-2.17,5.23-4.34,9.569-4.34,16.97    c0,13.464,6.955,21.753,13.047,29.57c-19.556,1.308-56.109,3.478-83.065,20.001c-25.676,15.217-33.493,37.416-33.493,53.077    c0,32.186,30.461,62.201,93.525,62.201C309.561,484.454,349.146,443.116,349.146,402.251z M255.621,291.34    c-37.415,0-54.384-48.292-54.384-77.418c0-11.322,2.17-23.034,9.569-32.186c6.955-8.707,19.139-14.382,30.461-14.382    c36.108,0,54.802,48.738,54.802,80.033c0,7.845-0.862,21.754-10.877,31.768C278.237,286.11,266.498,291.312,255.621,291.34z     M256.066,466.177c-46.54,0-76.556-22.171-76.556-53.049s27.846-41.311,37.416-44.787c18.276-6.093,41.755-6.982,45.677-6.982    c4.34,0,6.51,0,9.987,0.445c33.076,23.479,47.402,35.218,47.402,57.416C319.992,446.176,297.821,466.177,256.066,466.177z"
         id="path30"
         style="fill:#4d4d4d" /><polygon
         points="353.068,317.768 400.164,317.768 400.164,364.836 423.699,364.836 423.699,317.768 470.768,317.768     470.768,294.233 423.699,294.233 423.699,247.165 400.164,247.165 400.164,294.233 353.068,294.233   "
         id="polygon32"
         style="fill:#4d4d4d" /><path
         d="M612,306C612,137.004,474.995,0,306,0C137.004,0,0,137.004,0,306c0,168.995,137.004,306,306,306    C474.995,612,612,474.995,612,306z M27.818,306C27.818,152.36,152.36,27.818,306,27.818S584.182,152.36,584.182,306    S459.64,584.182,306,584.182S27.818,459.64,27.818,306z"
         id="path34"
         style="fill:#4d4d4d" /></g></g><g
     id="g36"
     style="fill:#4d4d4d" /><g
     id="g38"
     style="fill:#4d4d4d" /><g
     id="g40"
     style="fill:#4d4d4d" /><g
     id="g42"
     style="fill:#4d4d4d" /><g
     id="g44"
     style="fill:#4d4d4d" /><g
     id="g46"
     style="fill:#4d4d4d" /><g
     id="g48"
     style="fill:#4d4d4d" /><g
     id="g50"
     style="fill:#4d4d4d" /><g
     id="g52"
     style="fill:#4d4d4d" /><g
     id="g54"
     style="fill:#4d4d4d" /><g
     id="g56"
     style="fill:#4d4d4d" /><g
     id="g58"
     style="fill:#4d4d4d" /><g
     id="g60"
     style="fill:#4d4d4d" /><g
     id="g62"
     style="fill:#4d4d4d" /><g
     id="g64"
     style="fill:#4d4d4d" /></svg>