<?xml version="1.0" encoding="UTF-8" standalone="no"?>
<!-- Generator: Adobe Illustrator 16.0.0, SVG Export Plug-In . SVG Version: 6.00 Build 0)  -->

<svg
   xmlns:dc="http://purl.org/dc/elements/1.1/"
   xmlns:cc="http://creativecommons.org/ns#"
   xmlns:rdf="http://www.w3.org/1999/02/22-rdf-syntax-ns#"
   xmlns:svg="http://www.w3.org/2000/svg"
   xmlns="http://www.w3.org/2000/svg"
   xmlns:sodipodi="http://sodipodi.sourceforge.net/DTD/sodipodi-0.dtd"
   xmlns:inkscape="http://www.inkscape.org/namespaces/inkscape"
   version="1.1"
   id="Capa_1"
   x="0px"
   y="0px"
   width="612px"
   height="612px"
   viewBox="0 0 612 612"
   style="enable-background:new 0 0 612 612;"
   xml:space="preserve"
   inkscape:version="0.91 r13725"
   sodipodi:docname="pinterest.svg"><metadata
     id="metadata115"><rdf:RDF><cc:Work
         rdf:about=""><dc:format>image/svg+xml</dc:format><dc:type
           rdf:resource="http://purl.org/dc/dcmitype/StillImage" /></cc:Work></rdf:RDF></metadata><defs
     id="defs113" /><sodipodi:namedview
     pagecolor="#ffffff"
     bordercolor="#666666"
     borderopacity="1"
     objecttolerance="10"
     gridtolerance="10"
     guidetolerance="10"
     inkscape:pageopacity="0"
     inkscape:pageshadow="2"
     inkscape:window-width="1024"
     inkscape:window-height="737"
     id="namedview111"
     showgrid="false"
     inkscape:zoom="0.38562092"
     inkscape:cx="306"
     inkscape:cy="306"
     inkscape:window-x="0"
     inkscape:window-y="0"
     inkscape:window-maximized="1"
     inkscape:current-layer="Capa_1" /><g
     id="g73"
     style="fill:#4d4d4d"><g
       id="g75"
       style="fill:#4d4d4d"><path
         d="M447.232,252.033c0-63.453-52.659-122.567-132.664-122.567c-99.589,0-149.773,72.884-149.773,133.667    c0,36.803,13.631,69.545,42.923,81.73c4.785,2.003,9.097,0.056,10.488-5.342c0.946-3.755,3.254-13.241,4.256-17.163    c1.419-5.369,0.862-7.233-3.004-11.935c-8.457-10.209-13.826-23.339-13.826-41.978c0-54.051,39.613-102.454,103.178-102.454    c56.276,0,87.21,35.106,87.21,81.98c0,61.701-26.733,113.749-66.457,113.749c-21.949,0-38.334-18.499-33.076-41.198    c6.287-27.095,18.499-56.36,18.499-75.916c0-17.498-9.208-32.13-28.263-32.13c-22.421,0-40.42,23.673-40.42,55.386    c0,20.196,6.704,33.854,6.704,33.854s-22.95,99.228-26.956,116.586c-3.645,15.829-4.201,33.215-3.7,47.903    c1.53,13.186,14.299,23.924,25.37,9.458c7.789-12.713,16.163-28.764,20.502-44.843c2.587-9.514,14.744-58.808,14.744-58.808    c7.288,14.188,28.569,26.678,51.213,26.678C401.527,398.662,447.232,335.96,447.232,252.033z"
         id="path77"
         style="fill:#4d4d4d" /><path
         d="M612,306C612,137.004,474.995,0,306,0C137.004,0,0,137.004,0,306c0,168.995,137.004,306,306,306    C474.995,612,612,474.995,612,306z M27.818,306C27.818,152.36,152.36,27.818,306,27.818S584.182,152.36,584.182,306    S459.64,584.182,306,584.182S27.818,459.64,27.818,306z"
         id="path79"
         style="fill:#4d4d4d" /></g></g><g
     id="g81"
     style="fill:#4d4d4d" /><g
     id="g83"
     style="fill:#4d4d4d" /><g
     id="g85"
     style="fill:#4d4d4d" /><g
     id="g87"
     style="fill:#4d4d4d" /><g
     id="g89"
     style="fill:#4d4d4d" /><g
     id="g91"
     style="fill:#4d4d4d" /><g
     id="g93"
     style="fill:#4d4d4d" /><g
     id="g95"
     style="fill:#4d4d4d" /><g
     id="g97"
     style="fill:#4d4d4d" /><g
     id="g99"
     style="fill:#4d4d4d" /><g
     id="g101"
     style="fill:#4d4d4d" /><g
     id="g103"
     style="fill:#4d4d4d" /><g
     id="g105"
     style="fill:#4d4d4d" /><g
     id="g107"
     style="fill:#4d4d4d" /><g
     id="g109"
     style="fill:#4d4d4d" /></svg>